<svg xmlns="http://www.w3.org/2000/svg" width="1600" height="900" viewBox="0 0 1600 900">
  <defs>
    <filter id="softShadowO" x="-20%" y="-20%" width="140%" height="140%">
      <feDropShadow dx="0" dy="2" stdDeviation="6" flood-color="#1F2937" flood-opacity="0.10"/>
    </filter>
    <filter id="softShadowOL" x="-30%" y="-30%" width="160%" height="160%">
      <feDropShadow dx="0" dy="1.5" stdDeviation="3" flood-color="#1F2937" flood-opacity="0.12"/>
    </filter>
    <filter id="chipShadowO" x="-40%" y="-40%" width="180%" height="180%">
      <feDropShadow dx="0" dy="1" stdDeviation="2" flood-color="#1F2937" flood-opacity="0.10"/>
    </filter>
  </defs>

  <rect x="0" y="0" width="1600" height="900" fill="#FAF9F6"/>

  <!-- ============ APP FRAME ============ -->
  <rect x="170" y="120" width="780" height="660" rx="14" fill="#FFFFFF" stroke="#E2E0DA" stroke-width="1.5" filter="url(#softShadowO)"/>

  <!-- faded nav rail -->
  <rect x="170" y="120" width="30" height="660" fill="#F3F1EC"/>
  <rect x="179" y="150" width="12" height="4" rx="2" fill="#E2E0DA"/>
  <rect x="179" y="180" width="12" height="4" rx="2" fill="#E2E0DA"/>
  <rect x="179" y="210" width="12" height="4" rx="2" fill="#E2E0DA"/>
  <rect x="179" y="240" width="12" height="4" rx="2" fill="#E2E0DA"/>
  <line x1="200" y1="120" x2="200" y2="780" stroke="#E2E0DA" stroke-width="1"/>

  <!-- ============ LEFT PANEL: stats + colour bands ============ -->
  <rect x="216" y="146" width="190" height="330" rx="10" fill="#FFFFFF" stroke="#E2E0DA" stroke-width="1" filter="url(#softShadowOL)"/>
  <!-- stat rows -->
  <rect x="232" y="164" width="70" height="6" rx="2" fill="#E2E0DA"/>
  <rect x="232" y="176" width="46" height="14" rx="3" fill="#D9DEDA"/>
  <rect x="232" y="206" width="70" height="6" rx="2" fill="#E2E0DA"/>
  <rect x="232" y="218" width="52" height="14" rx="3" fill="#D9DEDA"/>
  <line x1="232" y1="246" x2="390" y2="246" stroke="#E2E0DA" stroke-width="1"/>
  <!-- 5-row band breakdown, green -> red -->
  <rect x="232" y="258" width="14" height="9" rx="2" fill="#1A9850"/>
  <rect x="254" y="259" width="92" height="6" rx="2" fill="#E2E0DA"/>
  <rect x="232" y="284" width="14" height="9" rx="2" fill="#7A882B"/>
  <rect x="254" y="285" width="92" height="6" rx="2" fill="#E2E0DA"/>
  <rect x="232" y="310" width="14" height="9" rx="2" fill="#D97706"/>
  <rect x="254" y="311" width="92" height="6" rx="2" fill="#E2E0DA"/>
  <rect x="232" y="336" width="14" height="9" rx="2" fill="#D85417"/>
  <rect x="254" y="337" width="92" height="6" rx="2" fill="#E2E0DA"/>
  <rect x="232" y="362" width="14" height="9" rx="2" fill="#D73027"/>
  <rect x="254" y="363" width="92" height="6" rx="2" fill="#E2E0DA"/>

  <!-- ============ FILTERING PANEL (directly under stats) ============ -->
  <rect x="216" y="492" width="190" height="118" rx="10" fill="#FFFFFF" stroke="#E2E0DA" stroke-width="1" filter="url(#softShadowOL)"/>
  <text x="232" y="514" font-family="Helvetica, Arial, sans-serif" font-size="11" font-weight="700" letter-spacing="1.5" fill="#9CA3AF">FILTERING</text>
  <line x1="232" y1="522" x2="390" y2="522" stroke="#E2E0DA" stroke-width="1"/>
  <!-- row 1: ticked -->
  <rect x="232" y="536" width="12" height="12" rx="2" fill="#1A9850"/>
  <rect x="254" y="539" width="66" height="7" rx="2" fill="#E2E0DA"/>
  <rect x="378" y="536" width="14" height="14" rx="3" fill="#166534"/>
  <path d="M 381.5 543 L 384.5 546 L 389 540" fill="none" stroke="#FFFFFF" stroke-width="1.6" stroke-linecap="round" stroke-linejoin="round"/>
  <!-- row 2: unticked -->
  <rect x="232" y="566" width="12" height="12" rx="2" fill="#D97706"/>
  <rect x="254" y="569" width="66" height="7" rx="2" fill="#E2E0DA"/>
  <rect x="378" y="566" width="14" height="14" rx="3" fill="#FFFFFF" stroke="#D9DEDA" stroke-width="1.5"/>

  <!-- ============ MAP ============ -->
  <rect x="422" y="146" width="512" height="464" rx="10" fill="#F2EDE3" stroke="#E2E0DA" stroke-width="1"/>
  <circle cx="600" cy="230" r="26" fill="#1A9850" opacity="0.5"/>
  <circle cx="520" cy="350" r="20" fill="#1A9850" opacity="0.5"/>
  <circle cx="855" cy="270" r="22" fill="#1A9850" opacity="0.5"/>
  <circle cx="705" cy="430" r="20" fill="#D97706" opacity="0.55"/>
  <circle cx="565" cy="490" r="16" fill="#D97706" opacity="0.55"/>
  <circle cx="880" cy="500" r="18" fill="#D73027" opacity="0.55"/>

  <!-- ============ SIX VERDICT CARDS ============ -->
  <!-- card 1 : green -->
  <g transform="translate(216,626)">
    <rect width="108" height="134" rx="8" fill="#FFFFFF" stroke="#E2E0DA" stroke-width="1"/>
    <rect x="12" y="12" width="16" height="16" rx="4" fill="#F3F4F6" stroke="#E2E0DA" stroke-width="1"/>
    <circle cx="20" cy="20" r="3" fill="#9CA3AF"/>
    <rect x="12" y="36" width="50" height="10" rx="5" fill="#1A9850"/>
    <rect x="12" y="56" width="70" height="6" rx="2" fill="#E2E0DA"/>
    <rect x="16" y="96" width="8" height="24" rx="2" fill="#D9DEDA"/>
    <rect x="30" y="88" width="8" height="32" rx="2" fill="#D9DEDA"/>
    <rect x="44" y="94" width="8" height="26" rx="2" fill="#D9DEDA"/>
  </g>
  <!-- card 2 : green -->
  <g transform="translate(338,626)">
    <rect width="108" height="134" rx="8" fill="#FFFFFF" stroke="#E2E0DA" stroke-width="1"/>
    <rect x="12" y="12" width="16" height="16" rx="4" fill="#F3F4F6" stroke="#E2E0DA" stroke-width="1"/>
    <circle cx="20" cy="20" r="3" fill="#9CA3AF"/>
    <rect x="12" y="36" width="50" height="10" rx="5" fill="#1A9850"/>
    <rect x="12" y="56" width="70" height="6" rx="2" fill="#E2E0DA"/>
    <rect x="16" y="92" width="8" height="28" rx="2" fill="#D9DEDA"/>
    <rect x="30" y="98" width="8" height="22" rx="2" fill="#D9DEDA"/>
    <rect x="44" y="86" width="8" height="34" rx="2" fill="#D9DEDA"/>
  </g>
  <!-- card 3 : amber (attention) -->
  <g transform="translate(460,626)">
    <rect width="108" height="134" rx="8" fill="#FFFFFF" stroke="#E2E0DA" stroke-width="1"/>
    <rect x="12" y="12" width="16" height="16" rx="4" fill="#F3F4F6" stroke="#E2E0DA" stroke-width="1"/>
    <circle cx="20" cy="20" r="3" fill="#9CA3AF"/>
    <rect x="12" y="36" width="50" height="10" rx="5" fill="#D97706"/>
    <rect x="12" y="56" width="70" height="6" rx="2" fill="#E2E0DA"/>
    <rect x="16" y="100" width="8" height="20" rx="2" fill="#D9DEDA"/>
    <rect x="30" y="84" width="8" height="36" rx="2" fill="#EFCB99"/>
    <rect x="44" y="96" width="8" height="24" rx="2" fill="#D9DEDA"/>
  </g>
  <!-- card 4 : green -->
  <g transform="translate(582,626)">
    <rect width="108" height="134" rx="8" fill="#FFFFFF" stroke="#E2E0DA" stroke-width="1"/>
    <rect x="12" y="12" width="16" height="16" rx="4" fill="#F3F4F6" stroke="#E2E0DA" stroke-width="1"/>
    <circle cx="20" cy="20" r="3" fill="#9CA3AF"/>
    <rect x="12" y="36" width="50" height="10" rx="5" fill="#1A9850"/>
    <rect x="12" y="56" width="70" height="6" rx="2" fill="#E2E0DA"/>
    <rect x="16" y="90" width="8" height="30" rx="2" fill="#D9DEDA"/>
    <rect x="30" y="96" width="8" height="24" rx="2" fill="#D9DEDA"/>
    <rect x="44" y="104" width="8" height="16" rx="2" fill="#D9DEDA"/>
  </g>
  <!-- card 5 : red (critical) -->
  <g transform="translate(704,626)">
    <rect width="108" height="134" rx="8" fill="#FFFFFF" stroke="#E2E0DA" stroke-width="1"/>
    <rect x="12" y="12" width="16" height="16" rx="4" fill="#F3F4F6" stroke="#E2E0DA" stroke-width="1"/>
    <circle cx="20" cy="20" r="3" fill="#9CA3AF"/>
    <rect x="12" y="36" width="50" height="10" rx="5" fill="#D73027"/>
    <rect x="12" y="56" width="70" height="6" rx="2" fill="#E2E0DA"/>
    <rect x="16" y="104" width="8" height="16" rx="2" fill="#D9DEDA"/>
    <rect x="30" y="94" width="8" height="26" rx="2" fill="#F4B8AE"/>
    <rect x="44" y="80" width="8" height="40" rx="2" fill="#F4B8AE"/>
  </g>
  <!-- card 6 : green -->
  <g transform="translate(826,626)">
    <rect width="108" height="134" rx="8" fill="#FFFFFF" stroke="#E2E0DA" stroke-width="1"/>
    <rect x="12" y="12" width="16" height="16" rx="4" fill="#F3F4F6" stroke="#E2E0DA" stroke-width="1"/>
    <circle cx="20" cy="20" r="3" fill="#9CA3AF"/>
    <rect x="12" y="36" width="50" height="10" rx="5" fill="#1A9850"/>
    <rect x="12" y="56" width="70" height="6" rx="2" fill="#E2E0DA"/>
    <rect x="16" y="94" width="8" height="26" rx="2" fill="#D9DEDA"/>
    <rect x="30" y="90" width="8" height="30" rx="2" fill="#D9DEDA"/>
    <rect x="44" y="100" width="8" height="20" rx="2" fill="#D9DEDA"/>
  </g>

  <!-- ============ ANNOTATIONS (modern ring + chip style) ============ -->
  <!-- A: stats / band panel -->
  <line x1="406" y1="230" x2="1000" y2="181" stroke="#AEB4BC" stroke-width="1.25"/>
  <circle cx="406" cy="230" r="5.5" fill="#166534"/>
  <circle cx="406" cy="230" r="2" fill="#FFFFFF"/>
  <rect x="1000" y="150" width="330" height="62" rx="6" fill="#FFFFFF" stroke="#E8EAE6" stroke-width="1" filter="url(#chipShadowO)"/>
  <text x="1016" y="176" font-family="Helvetica, Arial, sans-serif" font-size="19" fill="#1F2937">
    <tspan x="1016" dy="0">The region's numbers and the</tspan>
    <tspan x="1016" dy="24">bands, in one panel.</tspan>
  </text>

  <!-- B: map -->
  <line x1="770" y1="350" x2="1000" y2="311" stroke="#AEB4BC" stroke-width="1.25"/>
  <circle cx="770" cy="350" r="5.5" fill="#166534"/>
  <circle cx="770" cy="350" r="2" fill="#FFFFFF"/>
  <rect x="1000" y="280" width="340" height="62" rx="6" fill="#FFFFFF" stroke="#E8EAE6" stroke-width="1" filter="url(#chipShadowO)"/>
  <text x="1016" y="306" font-family="Helvetica, Arial, sans-serif" font-size="19" fill="#1F2937">
    <tspan x="1016" dy="0">One fixed lens: overall health.</tspan>
    <tspan x="1016" dy="24">Colour shows where the problems are.</tspan>
  </text>

  <!-- C: filtering panel -->
  <line x1="406" y1="551" x2="1000" y2="453" stroke="#AEB4BC" stroke-width="1.25"/>
  <circle cx="406" cy="551" r="5.5" fill="#166534"/>
  <circle cx="406" cy="551" r="2" fill="#FFFFFF"/>
  <rect x="1000" y="410" width="360" height="86" rx="6" fill="#FFFFFF" stroke="#E8EAE6" stroke-width="1" filter="url(#chipShadowO)"/>
  <text x="1016" y="436" font-family="Helvetica, Arial, sans-serif" font-size="19" fill="#1F2937">
    <tspan x="1016" dy="0">One filter, under the legend.</tspan>
    <tspan x="1016" dy="24">Pick crops or trees and the</tspan>
    <tspan x="1016" dy="24">whole page narrows.</tspan>
  </text>

  <!-- D: verdict cards row -->
  <line x1="575" y1="626" x2="1000" y2="621" stroke="#AEB4BC" stroke-width="1.25"/>
  <circle cx="575" cy="626" r="5.5" fill="#166534"/>
  <circle cx="575" cy="626" r="2" fill="#FFFFFF"/>
  <rect x="1000" y="590" width="340" height="62" rx="6" fill="#FFFFFF" stroke="#E8EAE6" stroke-width="1" filter="url(#chipShadowO)"/>
  <text x="1016" y="616" font-family="Helvetica, Arial, sans-serif" font-size="19" fill="#1F2937">
    <tspan x="1016" dy="0">Six cards, one status word each.</tspan>
    <tspan x="1016" dy="24">Each opens its module.</tspan>
  </text>
</svg>
