<svg xmlns="http://www.w3.org/2000/svg" width="1600" height="900" viewBox="0 0 1600 900">
  <defs>
    <filter id="softShadowN" x="-20%" y="-20%" width="140%" height="140%">
      <feDropShadow dx="0" dy="2" stdDeviation="6" flood-color="#1F2937" flood-opacity="0.10"/>
    </filter>
  </defs>

  <rect x="0" y="0" width="1600" height="900" fill="#FAF9F6"/>

  <!-- ============ APP FRAME ============ -->
  <rect x="180" y="140" width="680" height="620" rx="14" fill="#FFFFFF" stroke="#E2E0DA" stroke-width="1.5" filter="url(#softShadowN)"/>

  <!-- nav / main divider -->
  <line x1="410" y1="140" x2="410" y2="760" stroke="#E2E0DA" stroke-width="1"/>

  <!-- logo -->
  <circle cx="208" cy="176" r="8" fill="#166534"/>
  <rect x="228" y="168" width="90" height="16" rx="4" fill="#D9DEDA"/>
  <line x1="180" y1="200" x2="410" y2="200" stroke="#E2E0DA" stroke-width="1"/>

  <!-- Overview (highlighted) -->
  <rect x="200" y="216" width="190" height="40" rx="8" fill="#EAF3EC"/>
  <text x="216" y="242" font-family="Helvetica, Arial, sans-serif" font-size="16" font-weight="700" fill="#1F2937">Overview</text>

  <!-- MODULES section -->
  <text x="200" y="284" font-family="Helvetica, Arial, sans-serif" font-size="11" font-weight="700" letter-spacing="1.5" fill="#9CA3AF">MODULES</text>
  <text x="200" y="320" font-family="Helvetica, Arial, sans-serif" font-size="16" fill="#374151">Crop Monitoring</text>
  <text x="200" y="354" font-family="Helvetica, Arial, sans-serif" font-size="16" fill="#374151">Palms &amp; Fruit Trees</text>
  <text x="200" y="388" font-family="Helvetica, Arial, sans-serif" font-size="16" fill="#374151">Land Use &amp; Structures</text>
  <text x="200" y="422" font-family="Helvetica, Arial, sans-serif" font-size="16" fill="#374151">Irrigation Efficiency</text>
  <text x="200" y="456" font-family="Helvetica, Arial, sans-serif" font-size="16" fill="#374151">Yield Forecast</text>
  <text x="200" y="490" font-family="Helvetica, Arial, sans-serif" font-size="16" fill="#374151">Water Allocation</text>

  <!-- DRILL-DOWN section -->
  <text x="200" y="530" font-family="Helvetica, Arial, sans-serif" font-size="11" font-weight="700" letter-spacing="1.5" fill="#9CA3AF">DRILL-DOWN</text>
  <text x="200" y="566" font-family="Helvetica, Arial, sans-serif" font-size="16" fill="#374151">Farm Analysis</text>

  <!-- faded main area placeholders -->
  <rect x="430" y="164" width="410" height="24" rx="4" fill="#F0EFEA"/>
  <rect x="430" y="204" width="410" height="520" rx="8" fill="#F2F1ED" stroke="#E2E0DA" stroke-width="1"/>

  <!-- ============ CONNECTORS ============ -->
  <circle cx="400" cy="236" r="3" fill="#9CA3AF"/>
  <line x1="400" y1="236" x2="940" y2="185" stroke="#9CA3AF" stroke-width="2"/>

  <path d="M 420 306 L 408 306 M 420 306 L 420 497 M 420 497 L 408 497" fill="none" stroke="#9CA3AF" stroke-width="2"/>
  <circle cx="420" cy="402" r="3" fill="#9CA3AF"/>
  <line x1="420" y1="402" x2="940" y2="450" stroke="#9CA3AF" stroke-width="2"/>

  <circle cx="400" cy="560" r="3" fill="#9CA3AF"/>
  <line x1="400" y1="560" x2="940" y2="715" stroke="#9CA3AF" stroke-width="2"/>

  <!-- ============ RIGHT CHIPS ============ -->
  <!-- chip 1: eye -->
  <circle cx="966" cy="185" r="26" fill="#EAF3EC"/>
  <path d="M 951 185 Q 966 175 981 185 Q 966 195 951 185 Z" fill="none" stroke="#166534" stroke-width="2" stroke-linejoin="round"/>
  <circle cx="966" cy="185" r="4" fill="#166534"/>
  <text x="1012" y="192" font-family="Helvetica, Arial, sans-serif" font-size="22" font-weight="700" fill="#1F2937">Altitude 1 — the situation</text>

  <!-- chip 2: ranked list -->
  <circle cx="966" cy="450" r="26" fill="#EAF3EC"/>
  <circle cx="951" cy="441" r="2" fill="#166534"/>
  <line x1="956" y1="441" x2="978" y2="441" stroke="#166534" stroke-width="2" stroke-linecap="round"/>
  <circle cx="951" cy="450" r="2" fill="#166534"/>
  <line x1="956" y1="450" x2="972" y2="450" stroke="#166534" stroke-width="2" stroke-linecap="round"/>
  <circle cx="951" cy="459" r="2" fill="#166534"/>
  <line x1="956" y1="459" x2="967" y2="459" stroke="#166534" stroke-width="2" stroke-linecap="round"/>
  <text x="1012" y="457" font-family="Helvetica, Arial, sans-serif" font-size="22" font-weight="700" fill="#1F2937">Altitude 2 — the question</text>

  <!-- chip 3: magnifying glass over document -->
  <circle cx="966" cy="715" r="26" fill="#EAF3EC"/>
  <rect x="955" y="704" width="16" height="20" rx="1.5" fill="#FFFFFF" stroke="#166534" stroke-width="2"/>
  <circle cx="973" cy="720" r="5.5" fill="#FFFFFF" stroke="#166534" stroke-width="2"/>
  <line x1="976.9" y1="723.9" x2="981" y2="728" stroke="#166534" stroke-width="2" stroke-linecap="round"/>
  <text x="1012" y="722" font-family="Helvetica, Arial, sans-serif" font-size="22" font-weight="700" fill="#1F2937">Altitude 3 — the farm</text>

  <text x="800" y="820" text-anchor="middle" font-family="Helvetica, Arial, sans-serif" font-size="18" fill="#6B7280">Each entry in the menu answers at one altitude.</text>
</svg>
