<svg xmlns="http://www.w3.org/2000/svg" width="1600" height="900" viewBox="0 0 1600 900">
  <defs>
    <filter id="softShadowF" x="-20%" y="-20%" width="140%" height="140%">
      <feDropShadow dx="0" dy="2" stdDeviation="6" flood-color="#1F2937" flood-opacity="0.10"/>
    </filter>
    <filter id="softShadowFL" x="-30%" y="-30%" width="160%" height="160%">
      <feDropShadow dx="0" dy="1.5" stdDeviation="3" flood-color="#1F2937" flood-opacity="0.12"/>
    </filter>
    <filter id="chipShadowF" x="-40%" y="-40%" width="180%" height="180%">
      <feDropShadow dx="0" dy="1" stdDeviation="2" flood-color="#1F2937" flood-opacity="0.10"/>
    </filter>
  </defs>

  <rect x="0" y="0" width="1600" height="900" fill="#FAF9F6"/>

  <!-- ============ APP FRAME ============ -->
  <rect x="150" y="120" width="850" height="620" rx="14" fill="#FFFFFF" stroke="#E2E0DA" stroke-width="1.5" filter="url(#softShadowF)"/>

  <!-- faded nav rail -->
  <rect x="150" y="120" width="30" height="620" fill="#F3F1EC"/>
  <rect x="159" y="150" width="12" height="4" rx="2" fill="#E2E0DA"/>
  <rect x="159" y="180" width="12" height="4" rx="2" fill="#E2E0DA"/>
  <rect x="159" y="210" width="12" height="4" rx="2" fill="#E2E0DA"/>
  <rect x="159" y="240" width="12" height="4" rx="2" fill="#E2E0DA"/>
  <line x1="180" y1="120" x2="180" y2="740" stroke="#E2E0DA" stroke-width="1"/>

  <!-- ============ MAP (left, ~60%) ============ -->
  <rect x="196" y="140" width="480" height="580" rx="10" fill="#F2EDE3" stroke="#E2E0DA" stroke-width="1"/>

  <!-- context plots (unselected, neutral) -->
  <polygon points="230,470 280,460 290,510 240,520" fill="#E2E0DA" fill-opacity="0.45" stroke="#D9DEDA" stroke-width="1.5" stroke-linejoin="round"/>
  <polygon points="560,220 610,210 620,260 570,265" fill="#E2E0DA" fill-opacity="0.45" stroke="#D9DEDA" stroke-width="1.5" stroke-linejoin="round"/>

  <!-- the highlighted plot -->
  <polygon points="436,350 510,395 492,485 400,515 352,425" fill="#06B6D4" fill-opacity="0.14" stroke="#06B6D4" stroke-width="3" stroke-linejoin="round"/>

  <!-- ============ DOSSIER DRAWER (right, ~35%) ============ -->
  <rect x="700" y="140" width="284" height="580" rx="14" fill="#FFFFFF" stroke="#E2E0DA" stroke-width="1.5" filter="url(#softShadowFL)"/>

  <!-- header: farm id / owner -->
  <rect x="716" y="161" width="150" height="10" rx="3" fill="#D9DEDA"/>
  <rect x="716" y="179" width="110" height="8" rx="2" fill="#E2E0DA"/>
  <line x1="716" y1="204" x2="968" y2="204" stroke="#E2E0DA" stroke-width="1"/>

  <!-- verdict box -->
  <rect x="712" y="220" width="260" height="76" rx="8" fill="#FFFFFF" stroke="#E2E0DA" stroke-width="1"/>
  <circle cx="732" cy="252" r="6" fill="#D97706"/>
  <rect x="750" y="240" width="204" height="8" rx="2" fill="#E2E0DA"/>
  <rect x="750" y="258" width="170" height="8" rx="2" fill="#E2E0DA"/>

  <line x1="716" y1="316" x2="968" y2="316" stroke="#E2E0DA" stroke-width="1"/>

  <!-- module status rows (6) -->
  <!-- row 1 : green -->
  <rect x="716" y="332" width="14" height="14" rx="3" fill="#F3F4F6" stroke="#E2E0DA" stroke-width="1"/>
  <circle cx="723" cy="339" r="2.5" fill="#9CA3AF"/>
  <rect x="738" y="335" width="100" height="8" rx="2" fill="#E2E0DA"/>
  <rect x="850" y="333" width="50" height="13" rx="6.5" fill="#1A9850"/>
  <rect x="912" y="335" width="32" height="8" rx="2" fill="#D9DEDA"/>

  <!-- row 2 : green -->
  <rect x="716" y="374" width="14" height="14" rx="3" fill="#F3F4F6" stroke="#E2E0DA" stroke-width="1"/>
  <circle cx="723" cy="381" r="2.5" fill="#9CA3AF"/>
  <rect x="738" y="377" width="100" height="8" rx="2" fill="#E2E0DA"/>
  <rect x="850" y="375" width="50" height="13" rx="6.5" fill="#1A9850"/>
  <rect x="912" y="377" width="32" height="8" rx="2" fill="#D9DEDA"/>

  <!-- row 3 : amber -->
  <rect x="716" y="416" width="14" height="14" rx="3" fill="#F3F4F6" stroke="#E2E0DA" stroke-width="1"/>
  <circle cx="723" cy="423" r="2.5" fill="#9CA3AF"/>
  <rect x="738" y="419" width="100" height="8" rx="2" fill="#E2E0DA"/>
  <rect x="850" y="417" width="50" height="13" rx="6.5" fill="#D97706"/>
  <rect x="912" y="419" width="32" height="8" rx="2" fill="#D9DEDA"/>

  <!-- row 4 : green -->
  <rect x="716" y="458" width="14" height="14" rx="3" fill="#F3F4F6" stroke="#E2E0DA" stroke-width="1"/>
  <circle cx="723" cy="465" r="2.5" fill="#9CA3AF"/>
  <rect x="738" y="461" width="100" height="8" rx="2" fill="#E2E0DA"/>
  <rect x="850" y="459" width="50" height="13" rx="6.5" fill="#1A9850"/>
  <rect x="912" y="461" width="32" height="8" rx="2" fill="#D9DEDA"/>

  <!-- row 5 : red -->
  <rect x="716" y="500" width="14" height="14" rx="3" fill="#F3F4F6" stroke="#E2E0DA" stroke-width="1"/>
  <circle cx="723" cy="507" r="2.5" fill="#9CA3AF"/>
  <rect x="738" y="503" width="100" height="8" rx="2" fill="#E2E0DA"/>
  <rect x="850" y="501" width="50" height="13" rx="6.5" fill="#D73027"/>
  <rect x="912" y="503" width="32" height="8" rx="2" fill="#D9DEDA"/>

  <!-- row 6 : green -->
  <rect x="716" y="542" width="14" height="14" rx="3" fill="#F3F4F6" stroke="#E2E0DA" stroke-width="1"/>
  <circle cx="723" cy="549" r="2.5" fill="#9CA3AF"/>
  <rect x="738" y="545" width="100" height="8" rx="2" fill="#E2E0DA"/>
  <rect x="850" y="543" width="50" height="13" rx="6.5" fill="#1A9850"/>
  <rect x="912" y="545" width="32" height="8" rx="2" fill="#D9DEDA"/>

  <line x1="716" y1="572" x2="968" y2="572" stroke="#E2E0DA" stroke-width="1"/>

  <!-- action buttons -->
  <rect x="712" y="590" width="260" height="42" rx="8" fill="#166534"/>
  <text x="842" y="616" text-anchor="middle" font-family="Helvetica, Arial, sans-serif" font-size="15" font-weight="700" fill="#FFFFFF">Open Farm Analysis</text>

  <rect x="712" y="642" width="260" height="42" rx="8" fill="#FFFFFF" stroke="#166534" stroke-width="1.5"/>
  <text x="842" y="668" text-anchor="middle" font-family="Helvetica, Arial, sans-serif" font-size="15" font-weight="700" fill="#166534">Export</text>
</svg>
